# xmcd
#
# Track frame offsets:
# 150
# 21293
# 55279
# 78595
# 97411
# 115085
# 133625
# 153744
# 174473
# 189149
# 210707
# 237456
#
# Disc length: 3537 seconds
#
#
# Revision: 0
# Processed by: cddbd v1.5.1PL2 Copyright (c) Steve Scherf et al.
# Submitted via: FreeRIP 2.944 
#
DISCID=a70dcf0c
DTITLE=Big Chico - 10 Anos de Blues
DYEAR=2005
DGENRE=Blues
TTITLE0=Beggin ain´t for me
TTITLE1=Dead end street
TTITLE2=Girls and money 1
TTITLE3=I cry for you
TTITLE4=Big Chico and jumpin
TTITLE5=I can´t seem to shake these blues
TTITLE6=Up the line
TTITLE7=Chitlin con carne
TTITLE8=Girls and money 2
TTITLE9=A change is gonna come
TTITLE10=Love Shock
TTITLE11=About to lose your clown
EXTD=
EXTT0=
EXTT1=
EXTT2=
EXTT3=
EXTT4=
EXTT5=
EXTT6=
EXTT7=
EXTT8=
EXTT9=
EXTT10=
EXTT11=
PLAYORDER=
